<svg width="55" height="24" viewBox="0 0 55 24" fill="none" xmlns="http://www.w3.org/2000/svg">
<g clip-path="url(#clip0_1_13)">
<path d="M30.613 17.0444H31.6077L34.202 23.6087H33.0958L32.3913 21.8268H29.814L29.118 23.6087H28L30.613 17.0444ZM32.182 21.0572L31.1108 18.1823L30.0046 21.0572H32.182Z" fill="#1A1C33"/>
<path d="M37.534 23.6545C37.0717 23.6681 36.6123 23.5767 36.1905 23.3872C35.8364 23.222 35.5293 22.9712 35.2971 22.6575C35.0704 22.3399 34.9048 21.9832 34.8087 21.6053C34.7074 21.2033 34.6568 20.7903 34.6581 20.3758V17.0444H35.7106V20.3732C35.7099 20.6685 35.7416 20.963 35.8051 21.2515C35.8625 21.5159 35.964 21.7689 36.1054 21.9999C36.2416 22.2204 36.4327 22.4019 36.6602 22.5268C36.9304 22.6639 37.231 22.7308 37.534 22.7211C37.8372 22.7323 38.1382 22.6654 38.4079 22.5268C38.6385 22.3986 38.8326 22.2141 38.972 21.9906C39.1121 21.7565 39.2109 21.5002 39.2638 21.2328C39.3266 20.9506 39.358 20.6623 39.3574 20.3732V17.0444H40.4193V20.3732C40.4221 20.8011 40.3649 21.2272 40.2491 21.6393C40.1498 22.0176 39.9763 22.3726 39.7386 22.6838C39.5056 22.9919 39.1987 23.2368 38.8461 23.3957C38.4318 23.5774 37.9821 23.6644 37.5298 23.6503L37.534 23.6545Z" fill="#1A1C33"/>
<path d="M46.7157 17.9566H44.4975V23.6053H43.4347V17.9566H41.208V17.0444H46.7157V17.9566Z" fill="#1A1C33"/>
<path d="M50.2085 23.6545C49.7578 23.6601 49.3116 23.5653 48.9024 23.377C48.5202 23.1974 48.1781 22.9428 47.8967 22.6286C47.6165 22.312 47.3939 21.949 47.2389 21.5561C47.0897 21.1632 47.013 20.7466 47.0126 20.3265C47.0107 19.8984 47.094 19.4741 47.2577 19.0783C47.4168 18.6851 47.6476 18.3246 47.9383 18.0151C48.2224 17.7043 48.5661 17.4535 48.9492 17.2777C49.3486 17.0918 49.7846 16.997 50.2255 17.0003C50.6742 16.9943 51.1181 17.0925 51.5222 17.2871C51.9069 17.4694 52.2494 17.7294 52.5279 18.0507C52.8067 18.3666 53.0263 18.7299 53.1763 19.1233C53.3314 19.5077 53.4117 19.9181 53.4128 20.3325C53.4143 20.7635 53.3314 21.1907 53.1686 21.59C53.0132 21.982 52.7871 22.3424 52.5015 22.6532C52.2132 22.9617 51.8661 23.2098 51.4805 23.3829C51.0824 23.5638 50.6493 23.6554 50.2119 23.6511L50.2085 23.6545ZM48.0813 20.3265C48.0798 20.7327 48.1696 21.134 48.3442 21.5009C48.5103 21.8531 48.7622 22.1582 49.0768 22.3885C49.412 22.6147 49.8097 22.731 50.2144 22.7211C50.5241 22.7262 50.8304 22.6564 51.107 22.5174C51.3661 22.3856 51.5936 22.1995 51.774 21.9718C51.9558 21.7388 52.0957 21.4761 52.1876 21.1954C52.2814 20.9153 52.3291 20.6219 52.3288 20.3265C52.3309 19.9233 52.241 19.5249 52.0659 19.1615C51.905 18.8083 51.6517 18.5049 51.3324 18.2832C51.0056 18.054 50.6139 17.9351 50.2144 17.9438C49.9017 17.9379 49.5922 18.0078 49.3125 18.1475C49.0533 18.2796 48.8255 18.4657 48.6446 18.6931C48.4613 18.9224 48.3175 19.1805 48.2191 19.4568C48.1261 19.7371 48.0787 20.0304 48.0787 20.3257L48.0813 20.3265Z" fill="#1A1C33"/>
<path fill-rule="evenodd" clip-rule="evenodd" d="M34.2911 13.6326H38.0766V13.1447C37.6065 12.9501 37.1141 12.8142 36.6106 12.7399L37.7354 9.65721H41.8111L42.97 12.7399C42.7431 12.7846 42.5102 12.8412 42.2714 12.9097C42.0343 12.9761 41.8009 13.0549 41.572 13.1455V13.6335H45.9369V13.1455C45.7402 13.0308 45.5278 12.945 45.3064 12.891C45.0903 12.8344 44.8685 12.7838 44.6411 12.7391L40.3272 1.6377H39.8328L35.5189 12.7399C35.0972 12.834 34.686 12.9696 34.2911 13.1447V13.6326ZM41.5235 8.78067H38.0766L39.3895 5.24313L39.815 3.76073H39.849L40.1732 5.20918L41.5235 8.78067Z" fill="#6779FF"/>
<path d="M29.5484 13.6326H33.7772V13.1446C33.5794 13.0534 33.3738 12.9798 33.1629 12.9249C32.945 12.8539 32.7228 12.7973 32.4975 12.7552V2.74923C32.7222 2.70449 32.9443 2.64784 33.1629 2.57952C33.379 2.50033 33.5894 2.41547 33.7942 2.32496V1.8396H30.7073L27.6391 9.50528L27.0588 11.2745H27.0418L26.4623 9.53922L23.4954 1.8396H20V2.32836C20.2269 2.4183 20.4538 2.50315 20.6807 2.58292C20.9189 2.64995 21.158 2.70596 21.3963 2.75262V12.7229C21.1539 12.7689 20.9148 12.831 20.6807 12.9088C20.4548 12.9753 20.2327 13.054 20.0153 13.1446V13.6326H23.5787V13.1446C23.3626 13.0547 23.1468 12.9761 22.9312 12.9088C22.7157 12.8414 22.4996 12.7849 22.2829 12.739V5.15907L22.2659 3.01906H22.4199L23.0333 4.99022L26.3577 13.6326H26.8018L30.2989 4.99022L30.8613 3.18792H30.9974L30.9294 5.15907V12.7399C30.6903 12.7959 30.458 12.8578 30.2299 12.9249C29.9984 12.9831 29.7711 13.0565 29.5493 13.1446L29.5484 13.6326Z" fill="#6779FF"/>
<path d="M48.4878 12.4701C48.6424 12.6173 48.8211 12.737 49.0162 12.824C49.2323 12.9139 49.5562 12.9589 49.9879 12.9589C50.3328 12.961 50.6764 12.9156 51.0089 12.824C51.3054 12.7335 51.5829 12.5897 51.8275 12.3997C52.0596 12.2163 52.2511 11.9869 52.3899 11.726C52.437 11.6324 52.4759 11.535 52.5064 11.4349H54.0499C54.0074 11.58 53.9542 11.7218 53.8908 11.8592C53.7113 12.2708 53.4366 12.6343 53.0893 12.9198C52.7063 13.228 52.2659 13.4573 51.7934 13.5944C51.2287 13.7589 50.6425 13.8384 50.0543 13.8303C49.4029 13.8383 48.7538 13.7525 48.127 13.5758C47.5598 13.4061 47.1562 13.2262 46.9163 13.0361C46.9282 12.8455 46.9455 12.6152 46.9682 12.3454C47.0022 12.0764 47.0362 11.8006 47.0703 11.5206C47.1154 11.2279 47.1613 10.947 47.2064 10.678C47.2515 10.409 47.2974 10.1782 47.3434 9.9873H47.7867L48.4878 12.4701Z" fill="#6779FF"/>
<path d="M54.1044 9.74457C54.041 9.45435 53.9229 9.17878 53.7564 8.93252C53.48 8.51278 53.1288 8.14723 52.72 7.85403C52.2928 7.54716 51.8369 7.28204 51.3586 7.06235C50.8816 6.82645 50.4326 6.5849 50.0117 6.3377C49.9266 6.28933 49.8484 6.23927 49.7718 6.18835H47.3213C47.34 6.2223 47.3596 6.25539 47.3791 6.28763C47.6622 6.71281 48.0138 7.0884 48.4198 7.39922C48.8465 7.70688 49.3025 7.97204 49.7811 8.1909C50.2695 8.41718 50.7185 8.64741 51.1281 8.88161C51.5169 9.09259 51.8685 9.36577 52.1687 9.69026L52.2163 9.74457H54.1044Z" fill="#6779FF"/>
<path d="M47.226 3.38989C47.0696 3.73749 46.9829 4.11221 46.9707 4.49298H48.5414C48.5414 4.44038 48.5354 4.38607 48.5354 4.33176C48.5354 3.75928 48.7116 3.3155 49.0638 3.00041C49.4172 2.67457 49.8835 2.51165 50.4627 2.51165C50.7934 2.51029 51.1239 2.53298 51.4514 2.57954C51.7207 2.61152 51.9846 2.67945 52.2359 2.78149L52.9165 5.08951H53.3599C53.4058 4.89858 53.4509 4.67966 53.4968 4.43274C53.5428 4.18581 53.5819 3.91004 53.616 3.64105C53.65 3.37207 53.6951 3.11326 53.7181 2.86549C53.7495 2.64224 53.7666 2.41719 53.7691 2.19175C53.4401 2.03449 52.9863 1.90523 52.4077 1.80397C51.784 1.68632 51.1502 1.62948 50.5154 1.63427C50.0245 1.62811 49.5359 1.70206 49.0689 1.85319C48.6593 1.97742 48.2774 2.17907 47.9441 2.44716C47.6378 2.70452 47.393 3.02691 47.2277 3.39074L47.226 3.38989Z" fill="#6779FF"/>
<path d="M7.57695 24H0V23.0225C0.790132 22.6712 1.61326 22.3989 2.4573 22.2096L11.0919 0H12.0823L20.716 22.2096C21.1698 22.2995 21.6137 22.4008 22.0476 22.5134C22.4908 22.6219 22.916 22.7934 23.3103 23.0225V24H14.5736V23.0225C15.0314 22.8407 15.4983 22.6827 15.9724 22.549C16.4506 22.4144 16.9172 22.3012 17.3721 22.2096L15.051 16.0416H6.89371L4.64147 22.2096C5.64944 22.3589 6.63528 22.6307 7.57695 23.0191V24ZM7.57695 14.2919H14.469L11.7726 7.14637L11.1242 4.24692H11.0561L10.2053 7.2168L7.57695 14.2919Z" fill="#6779FF"/>
</g>
<defs>
<clipPath id="clip0_1_13">
<rect width="55" height="24" fill="white"/>
</clipPath>
</defs>
</svg>
