<svg width="35" height="46" viewBox="0 0 35 46" fill="none" xmlns="http://www.w3.org/2000/svg">
<path d="M17.5 0C8.12615 0 0.5 7.89951 0.5 17.6094C0.5 20.7174 1.29276 23.7731 2.79248 26.446C3.14373 27.0717 3.53173 27.6745 3.9543 28.2509L16.7614 46H18.2385L31.0457 28.251C31.4682 27.6745 31.8562 27.0717 32.2075 26.446C33.7072 23.7731 34.5 20.7174 34.5 17.6094C34.5 7.89951 26.8739 0 17.5 0ZM17.5 23.4492C14.3913 23.4492 11.8622 20.8295 11.8622 17.6094C11.8622 14.3893 14.3913 11.7695 17.5 11.7695C20.6087 11.7695 23.1378 14.3893 23.1378 17.6094C23.1378 20.8295 20.6087 23.4492 17.5 23.4492Z" fill="black"/>
</svg>
