<svg width="64" height="68" viewBox="0 0 64 68" fill="none" xmlns="http://www.w3.org/2000/svg">
<path d="M31.0851 1.42596L2.08298 15.4267C1.90479 15.5128 1.75448 15.6473 1.64929 15.8149C1.5441 15.9825 1.48829 16.1764 1.48828 16.3742V50.8256C1.48831 51.0234 1.54412 51.2173 1.64931 51.3849C1.7545 51.5525 1.9048 51.687 2.08298 51.7731L31.0851 65.7742C31.3704 65.912 31.6831 65.9835 31.9999 65.9835C32.3167 65.9835 32.6294 65.912 32.9147 65.7742L61.9168 51.7732C62.095 51.6872 62.2453 51.5526 62.3505 51.385C62.4557 51.2174 62.5115 51.0236 62.5115 50.8257V16.3744C62.5114 16.1765 62.4556 15.9826 62.3504 15.815C62.2453 15.6475 62.0949 15.5129 61.9168 15.4269L32.9147 1.42596C32.6294 1.28821 32.3167 1.21667 31.9999 1.21667C31.6831 1.21667 31.3704 1.28821 31.0851 1.42596Z" fill="#FFE17D"/>
<path d="M1.66324 15.7983C1.54982 15.9691 1.48899 16.1693 1.48828 16.3743V50.8256C1.48829 51.0235 1.5441 51.2173 1.64929 51.3849C1.75448 51.5525 1.90479 51.6871 2.08298 51.7731L31.0851 65.7743C31.3703 65.9121 31.6831 65.9836 31.9999 65.9836V30.4437L1.66324 15.7983Z" fill="#FFC350"/>
<path d="M62.3366 15.7983C62.4501 15.9691 62.5109 16.1693 62.5116 16.3743V50.8256C62.5116 51.0235 62.4558 51.2173 62.3506 51.3849C62.2454 51.5525 62.0951 51.6871 61.9169 51.7731L32.9148 65.7743C32.6295 65.9121 32.3168 65.9836 32 65.9836V30.4437L62.3366 15.7983Z" fill="#FFD164"/>
<path d="M52.0558 20.7444L21.6126 6.03748L13.5876 9.92722L44.0991 24.6571L52.0558 20.7444Z" fill="#FF8087"/>
<path d="M44.0994 24.6571V36.068C44.0994 36.4559 44.5048 36.7104 44.8542 36.5417L51.4613 33.3521C51.6396 33.2661 51.7899 33.1315 51.8951 32.9639C52.0003 32.7963 52.0561 32.6024 52.056 32.4046V20.7444L44.0994 24.6571Z" fill="#E6646E"/>
<path d="M62.9395 14.8273L32.4279 0.0978441C32.2944 0.0334456 32.1481 0 31.9999 0C31.8518 0 31.7055 0.0334456 31.572 0.0978441L1.06028 14.8273C0.893567 14.9078 0.752933 15.0337 0.65452 15.1905C0.556107 15.3473 0.503905 15.5287 0.503906 15.7138V51.486C0.503905 51.6712 0.556107 51.8525 0.65452 52.0093C0.752933 52.1661 0.893567 52.292 1.06028 52.3725L31.5719 67.1023C31.7054 67.1667 31.8517 67.2001 31.9999 67.2001C32.1481 67.2001 32.2944 67.1667 32.4279 67.1023L62.9395 52.3725C63.1062 52.292 63.2468 52.1661 63.3452 52.0093C63.4436 51.8525 63.4959 51.6712 63.4958 51.486V15.7139C63.4958 15.5288 63.4436 15.3474 63.3452 15.1906C63.2468 15.0338 63.1062 14.9079 62.9395 14.8273ZM31.9999 2.07737L60.2473 15.7139L52.0589 19.6669C52.007 19.6264 51.9512 19.5912 51.8922 19.5619L23.8367 6.01817L31.9999 2.07737ZM21.6136 7.13118L49.8199 20.7479L44.0429 23.5369L15.8483 9.9255L21.6136 7.13118ZM45.0837 25.2205L50.4799 22.6155V32.9247L45.0837 35.5298V25.2205ZM32.9843 64.6476V31.0615L39.7926 27.7747C39.909 27.7185 40.0132 27.6399 40.0993 27.5434C40.1853 27.4469 40.2515 27.3345 40.2941 27.2124C40.3367 27.0903 40.3548 26.9611 40.3474 26.832C40.34 26.703 40.3073 26.5766 40.2511 26.4602C40.1949 26.3438 40.1163 26.2396 40.0198 26.1536C39.9233 26.0675 39.8109 26.0013 39.6888 25.9587C39.5667 25.9162 39.4375 25.8981 39.3084 25.9054C39.1794 25.9128 39.053 25.9455 38.9366 26.0018L31.9999 29.3506L29.2704 28.0329C28.7807 27.7962 28.1923 28.0017 27.9559 28.4913C27.7195 28.9809 27.9248 29.5694 28.4144 29.8058L31.0155 31.0615V64.6475L2.47267 50.8683V17.2821L24.2078 27.7749C24.341 27.8395 24.487 27.8731 24.635 27.8731C24.8581 27.8734 25.0746 27.7979 25.2492 27.659C25.4237 27.5201 25.5459 27.326 25.5957 27.1086C25.6456 26.8911 25.62 26.6632 25.5234 26.4622C25.4267 26.2611 25.2646 26.0989 25.0637 26.002L3.75249 15.7138L13.5313 10.993L43.1013 25.2683C43.1057 25.2744 43.1105 25.2797 43.115 25.2856V37.0981C43.115 37.2647 43.1574 37.4286 43.2381 37.5744C43.3187 37.7201 43.4351 37.8431 43.5762 37.9317C43.7173 38.0202 43.8786 38.0715 44.045 38.0808C44.2113 38.09 44.3773 38.0569 44.5274 37.9845L51.8922 34.4291C52.059 34.3486 52.1996 34.2227 52.298 34.0659C52.3964 33.9091 52.4486 33.7278 52.4486 33.5426V21.6651L61.5271 17.2824V50.8685L32.9843 64.6476Z" fill="black"/>
<path d="M10.5963 47.0507L6.11869 44.8891C5.88359 44.7756 5.61302 44.7601 5.36651 44.8461C5.11999 44.9321 4.91773 45.1125 4.80422 45.3476C4.6907 45.5827 4.67523 45.8533 4.76121 46.0998C4.84719 46.3463 5.02757 46.5485 5.26268 46.6621L9.74029 48.8236C9.87346 48.8882 10.0195 48.9218 10.1675 48.9218C10.3528 48.9219 10.5343 48.8697 10.6912 48.7713C10.8482 48.6728 10.9741 48.532 11.0546 48.3652C11.1109 48.2488 11.1436 48.1224 11.151 47.9934C11.1584 47.8643 11.1403 47.7351 11.0978 47.613C11.0552 47.4909 10.989 47.3784 10.903 47.282C10.8169 47.1855 10.7127 47.1069 10.5963 47.0507ZM14.7172 44.3682L6.12486 40.2201C5.89031 40.1109 5.62219 40.0984 5.37849 40.1853C5.13479 40.2723 4.9351 40.4516 4.82262 40.6846C4.71015 40.9177 4.69392 41.1856 4.77745 41.4305C4.86098 41.6753 5.03755 41.8775 5.26898 41.9932L13.8613 46.1413C13.9945 46.2058 14.1405 46.2393 14.2885 46.2394C14.5117 46.2398 14.7283 46.1643 14.9029 46.0254C15.0775 45.8865 15.1997 45.6924 15.2495 45.4749C15.2994 45.2574 15.2738 45.0294 15.1771 44.8283C15.0804 44.6273 14.9182 44.465 14.7172 44.3682Z" fill="black"/>
</svg>
