<svg width="64" height="64" viewBox="0 0 64 64" fill="none" xmlns="http://www.w3.org/2000/svg">
<path d="M62.5611 23.4206V57.0885C62.5611 58.8155 61.8373 60.3702 60.6822 61.4591C59.6345 62.4458 58.2324 63.0493 56.6918 63.0493H7.30717C5.76663 63.0493 4.36464 62.4458 3.31825 61.4601C2.16321 60.3701 1.43933 58.8155 1.43933 57.0885V23.4206H62.5611Z" fill="#FEC970"/>
<path d="M32.2499 63.0493H7.30704C4.0665 63.0493 1.43921 60.3804 1.43921 57.0885V23.2205L7.95698 28.9342L8.36352 29.2776V46.2691C8.36352 52.0498 10.6596 57.5288 15.8948 59.7969C20.7254 61.8897 29.3184 63.0493 32.2499 63.0493Z" fill="#FBA028"/>
<path d="M62.5607 23.4206L39.0669 3.54872C34.9724 0.0848559 29.0271 0.0848559 24.9326 3.54859L1.43921 23.4206L8.3634 29.2776L24.9323 43.2926C29.0274 46.757 34.9727 46.757 39.0663 43.2926L55.6367 29.2776L62.561 23.4206" fill="#FBA028"/>
<path d="M55.6368 11.0188V29.2775L39.0664 43.2928C34.9727 46.7571 29.0276 46.7571 24.9325 43.2928L8.36365 29.2776V11.0189C8.36365 7.21217 11.4023 4.12518 15.1509 4.12518H48.8512C52.5992 4.12518 55.637 7.21217 55.637 11.0189L55.6368 11.0188Z" fill="#BFDADD"/>
<path d="M55.6368 11.0188V25.096L39.0664 39.1109C34.9727 42.5753 29.0276 42.5753 24.9325 39.1109L8.36365 25.096V11.0188C8.36365 7.21217 11.4023 4.12531 15.1509 4.12531H48.8512C52.5992 4.12531 55.637 7.21217 55.637 11.0188H55.6368Z" fill="#E4F5F7"/>
<path d="M56.8636 59.1802C57.001 59.1805 57.1367 59.15 57.261 59.0908C57.3854 59.0317 57.4954 58.9453 57.5831 58.838C57.6617 58.7421 57.721 58.6314 57.7575 58.5123C57.794 58.3931 57.807 58.2678 57.7959 58.1435C57.7847 58.0192 57.7495 57.8984 57.6924 57.7879C57.6353 57.6774 57.5573 57.5795 57.4629 57.4996L42.5455 44.8824C42.4511 44.8026 42.3421 44.7424 42.2248 44.7053C42.1075 44.6682 41.9842 44.6549 41.8618 44.6663C41.7395 44.6776 41.6206 44.7133 41.5118 44.7714C41.403 44.8294 41.3066 44.9086 41.228 45.0045C41.0692 45.1983 40.9926 45.4482 41.0151 45.6992C41.0377 45.9503 41.1574 46.182 41.3481 46.3434L56.2656 58.9606C56.4334 59.1029 56.6451 59.1806 56.8636 59.1802ZM21.4549 44.8825L6.53766 57.4996C6.44326 57.5795 6.36526 57.6774 6.30813 57.7879C6.25099 57.8984 6.21584 58.0192 6.20468 58.1435C6.19351 58.2678 6.20656 58.3931 6.24306 58.5123C6.27957 58.6314 6.33883 58.7421 6.41744 58.838C6.50512 58.9454 6.6151 59.0318 6.7395 59.091C6.86391 59.1502 6.99966 59.1806 7.13702 59.1802C7.35555 59.1806 7.56725 59.1029 7.73503 58.9606L22.6524 46.3429C22.7468 46.2631 22.8248 46.1651 22.882 46.0546C22.9391 45.9441 22.9743 45.8233 22.9854 45.699C22.9966 45.5747 22.9835 45.4494 22.947 45.3303C22.9104 45.2111 22.8512 45.1004 22.7725 45.0045C22.6939 44.9086 22.5975 44.8294 22.4887 44.7713C22.38 44.7133 22.261 44.6776 22.1387 44.6662C22.0164 44.6549 21.893 44.6681 21.7757 44.7052C21.6584 44.7423 21.5495 44.8025 21.4551 44.8824L21.4549 44.8825Z" fill="black"/>
<path d="M63.4965 23.4207C63.4965 23.2813 63.4663 23.1436 63.4081 23.0173C63.3499 22.8911 63.2651 22.7794 63.1596 22.6902L56.5723 17.1185V11.0189C56.5723 6.69376 53.1087 3.17514 48.8512 3.17514H40.0866L39.6655 2.81877C35.2243 -0.93959 28.7763 -0.93959 24.3337 2.81877L23.9126 3.17514H22.0213C21.8984 3.17511 21.7768 3.19967 21.6633 3.24741C21.5498 3.29515 21.4466 3.36515 21.3598 3.45339C21.2729 3.54164 21.204 3.6464 21.157 3.76171C21.11 3.87701 21.0858 4.00059 21.0859 4.12539C21.0859 4.65039 21.5046 5.07601 22.0213 5.07601H48.8512C52.0768 5.07601 54.7012 7.742 54.7012 11.0189V28.8323L38.4677 42.5627C34.7205 45.7341 29.28 45.7336 25.5309 42.5622L9.29939 28.8323V11.019C9.29939 7.74213 11.9242 5.07601 15.1509 5.07601H18.2789C18.4027 5.07745 18.5255 5.05393 18.6403 5.00682C18.755 4.9597 18.8594 4.88992 18.9475 4.80152C19.0355 4.71312 19.1054 4.60786 19.1531 4.49183C19.2008 4.3758 19.2253 4.25132 19.2253 4.12558C19.2253 3.99984 19.2008 3.87535 19.1531 3.75932C19.1054 3.64329 19.0355 3.53803 18.9475 3.44963C18.8594 3.36123 18.755 3.29145 18.6403 3.24434C18.5255 3.19722 18.4027 3.1737 18.2789 3.17514H15.1509C10.8928 3.17514 7.42822 6.69376 7.42822 11.0189V17.1185L0.840933 22.6907C0.736464 22.779 0.652236 22.8895 0.594131 23.0143C0.536026 23.1391 0.505446 23.2754 0.504524 23.4134C0.504524 23.4163 0.50354 23.4183 0.50354 23.4212V57.0886C0.50354 60.8995 3.55571 63.9997 7.30714 63.9997H49.214C49.3369 63.9997 49.4585 63.9751 49.572 63.9274C49.6855 63.8796 49.7887 63.8097 49.8755 63.7214C49.9624 63.6332 50.0313 63.5284 50.0783 63.4131C50.1253 63.2978 50.1495 63.1742 50.1494 63.0494C50.1495 62.9246 50.1253 62.8011 50.0783 62.6858C50.0313 62.5705 49.9624 62.4657 49.8755 62.3775C49.7886 62.2893 49.6855 62.2193 49.572 62.1715C49.4585 62.1238 49.3369 62.0993 49.214 62.0993H7.30714C4.58708 62.0993 2.37471 59.8512 2.37471 57.0886V25.4486L7.76808 30.011C7.76857 30.011 7.76857 30.011 7.76857 30.0115L24.3337 44.0232C26.5558 45.9026 29.2772 46.842 32.0001 46.8415C34.7219 46.8415 37.4449 45.9021 39.665 44.0232L56.2282 30.0139C56.231 30.0114 56.2335 30.0095 56.2359 30.0072L61.6249 25.4491V57.0881C61.6249 59.8508 59.4125 62.0988 56.6924 62.0988H52.9564C52.4396 62.0988 52.0211 62.524 52.0211 63.049C52.0211 63.574 52.4397 63.9997 52.9564 63.9997H56.6924C60.444 63.9997 63.496 60.899 63.496 57.0881V23.4286C63.496 23.4261 63.4965 23.4236 63.4965 23.4207ZM36.8742 3.17514H27.1259C30.1554 1.4784 33.8454 1.4784 36.8745 3.17514H36.8742ZM7.42835 19.5921V27.2498L2.90159 23.4212L7.42835 19.5921ZM56.5725 27.2493V19.5921L61.0992 23.4208L56.5725 27.2493Z" fill="black"/>
<path d="M45.7212 26.3279H18.2793C18.1555 26.3264 18.0327 26.35 17.9179 26.3971C17.8032 26.4442 17.6988 26.514 17.6107 26.6024C17.5227 26.6908 17.4528 26.796 17.4051 26.9121C17.3574 27.0281 17.3329 27.1526 17.3329 27.2783C17.3329 27.4041 17.3574 27.5286 17.4051 27.6446C17.4528 27.7606 17.5227 27.8659 17.6107 27.9543C17.6988 28.0427 17.8032 28.1125 17.9179 28.1596C18.0327 28.2067 18.1555 28.2302 18.2793 28.2288H45.7212C45.8449 28.2302 45.9678 28.2067 46.0825 28.1596C46.1973 28.1125 46.3017 28.0427 46.3897 27.9543C46.4777 27.8659 46.5476 27.7606 46.5953 27.6446C46.643 27.5286 46.6676 27.4041 46.6676 27.2783C46.6676 27.1526 46.643 27.0281 46.5953 26.9121C46.5476 26.796 46.4777 26.6908 46.3897 26.6024C46.3017 26.514 46.1973 26.4442 46.0825 26.3971C45.9678 26.35 45.8449 26.3264 45.7212 26.3279ZM45.7212 31.8474H18.2793C18.0311 31.8474 17.7932 31.9475 17.6177 32.1258C17.4422 32.304 17.3437 32.5458 17.3437 32.7978C17.3437 33.0499 17.4422 33.2916 17.6177 33.4699C17.7932 33.6481 18.0311 33.7483 18.2793 33.7483H45.7212C45.8449 33.7497 45.9678 33.7262 46.0825 33.6791C46.1973 33.632 46.3017 33.5622 46.3897 33.4738C46.4777 33.3854 46.5476 33.2801 46.5953 33.1641C46.643 33.0481 46.6676 32.9236 46.6676 32.7978C46.6676 32.6721 46.643 32.5476 46.5953 32.4316C46.5476 32.3155 46.4777 32.2103 46.3897 32.1219C46.3017 32.0335 46.1973 31.9637 46.0825 31.9166C45.9678 31.8695 45.8449 31.846 45.7212 31.8474ZM45.7212 15.2884H18.2793C18.0311 15.2885 17.7931 15.3886 17.6176 15.5669C17.4422 15.7452 17.3436 15.9869 17.3435 16.239C17.3436 16.4911 17.4423 16.7328 17.6178 16.911C17.7933 17.0892 18.0313 17.1893 18.2794 17.1893H45.7213C46.238 17.1893 46.6571 16.7634 46.6571 16.239C46.6571 15.714 46.238 15.2884 45.7212 15.2884ZM45.7212 20.8084H38.8608C38.738 20.8084 38.6164 20.8329 38.5029 20.8807C38.3894 20.9284 38.2863 20.9984 38.1994 21.0866C38.1126 21.1749 38.0437 21.2796 37.9967 21.3949C37.9497 21.5102 37.9255 21.6337 37.9255 21.7585C37.9255 21.8833 37.9497 22.0069 37.9967 22.1222C38.0437 22.2375 38.1125 22.3422 38.1994 22.4305C38.2863 22.5187 38.3894 22.5887 38.5029 22.6365C38.6163 22.6842 38.738 22.7088 38.8608 22.7088H45.7212C45.844 22.7088 45.9657 22.6842 46.0792 22.6365C46.1927 22.5888 46.2958 22.5188 46.3827 22.4305C46.4695 22.3423 46.5384 22.2375 46.5854 22.1222C46.6324 22.0069 46.6566 21.8833 46.6566 21.7585C46.6566 21.6337 46.6324 21.5102 46.5854 21.3949C46.5384 21.2796 46.4695 21.1748 46.3826 21.0866C46.2958 20.9984 46.1926 20.9284 46.0792 20.8806C45.9657 20.8329 45.844 20.8084 45.7212 20.8084ZM18.2794 22.7088H35.7424C35.8653 22.7088 35.9869 22.6842 36.1004 22.6365C36.2139 22.5887 36.317 22.5187 36.4039 22.4305C36.4907 22.3422 36.5596 22.2375 36.6066 22.1222C36.6536 22.0069 36.6778 21.8833 36.6777 21.7585C36.6777 21.6337 36.6536 21.5102 36.6066 21.3949C36.5596 21.2796 36.4907 21.1749 36.4038 21.0866C36.317 20.9984 36.2139 20.9284 36.1004 20.8807C35.9869 20.8329 35.8653 20.8084 35.7424 20.8084H18.2794C18.0313 20.8083 17.7933 20.9084 17.6178 21.0866C17.4422 21.2647 17.3436 21.5065 17.3435 21.7585C17.3435 22.2835 17.7627 22.7088 18.2794 22.7088Z" fill="black"/>
</svg>
