<svg width="70" height="69" viewBox="0 0 70 69" fill="none" xmlns="http://www.w3.org/2000/svg">
<path fill-rule="evenodd" clip-rule="evenodd" d="M20.7758 51.2571C19.6454 50.1174 17.7958 50.1174 16.6654 51.2571L14.6103 53.3292C13.4798 54.4689 13.4798 56.3337 14.6103 57.4734C15.7405 58.613 17.5902 58.613 18.7206 57.4734L19.7482 56.4373L20.7758 55.4012C21.9062 54.2615 21.9062 52.3968 20.7758 51.2571Z" fill="#FFDCD5"/>
<path fill-rule="evenodd" clip-rule="evenodd" d="M21.8034 54.3652L20.7758 55.4013L19.7482 56.4373C18.6178 57.577 18.6178 59.4418 19.7482 60.5814C20.8785 61.7211 22.7281 61.7211 23.8584 60.5814L24.886 59.5453L25.9136 58.5092C27.0439 57.3695 27.0439 55.5048 25.9136 54.365C24.7833 53.2255 22.9338 53.2255 21.8034 54.3652ZM26.9413 57.4733L25.9137 58.5094L24.8861 59.5454C23.7557 60.685 23.7557 62.5499 24.8861 63.6896C26.0164 64.8293 27.8661 64.8293 28.9965 63.6896L30.0241 62.6535L31.0517 61.6175C32.1821 60.4779 32.1821 58.613 31.0517 57.4734C29.9214 56.3337 28.0717 56.3337 26.9413 57.4733Z" fill="#FFDCD5"/>
<path fill-rule="evenodd" clip-rule="evenodd" d="M32.0792 60.5813L31.0515 61.6174L30.0239 62.6535C28.8936 63.7932 28.8936 65.6579 30.0239 66.7976C31.1542 67.9372 33.0038 67.9372 34.1342 66.7976L36.1894 64.7255C36.3828 64.5306 36.5477 64.3094 36.679 64.0682C37.2852 62.9552 37.122 61.5216 36.1894 60.5813C35.0591 59.4416 33.2096 59.4416 32.0792 60.5813ZM34.4075 38.5366C35.9154 40.057 38.0806 41.0161 40.326 41.2409L51.0893 52.1921L58.6329 51.4315L56.4963 29.8921L52.8632 30.2584L46.8114 26.6426C45.1901 25.674 44.8691 25.5839 43.1264 25.7502L34.9996 26.5265L33.5803 26.6621C31.6413 26.8472 30.8314 27.5569 29.9874 29.0463C27.4491 33.5248 25.5117 36.4862 23.0008 40.8711C22.1833 42.2988 23.0187 43.8337 24.6881 43.8337C29.6466 43.8337 30.7836 42.8384 32.523 40.7736C33.2856 39.8686 33.6449 39.4418 34.4075 38.5366Z" fill="#FFDCD5"/>
<path fill-rule="evenodd" clip-rule="evenodd" d="M23.0011 40.8711C25.512 36.4861 27.4495 33.5247 29.9877 29.0463C30.8317 27.5569 31.6417 26.8473 33.5807 26.662L34.9999 26.5265L26.8731 25.7502C25.1306 25.5838 24.8096 25.6739 23.1881 26.6426L17.1364 30.2584L13.5032 29.8921L11.3669 51.4315L16.027 51.9012L16.6659 51.2571C17.7963 50.1174 19.6458 50.1174 20.7762 51.2571C21.9065 52.3968 21.9065 54.2615 20.7762 55.4012L21.8038 54.3652C22.9342 53.2254 24.7837 53.2254 25.9142 54.3652C27.0444 55.5049 27.0444 57.3696 25.9142 58.5093L26.9417 57.4732C28.0721 56.3337 29.9217 56.3337 31.0519 57.4732C32.1823 58.6128 32.1823 60.4777 31.0519 61.6173L32.0797 60.5812C33.2099 59.4416 35.0596 59.4416 36.19 60.5812C37.1226 61.5215 37.2858 62.9552 36.6796 64.0681C39.214 66.8432 43.116 64.9217 43.0099 61.8422C46.1889 64.4246 49.0043 61.256 48.423 58.9849C51.7332 60.9118 55.7261 56.8599 52.9057 54.0396L51.0897 52.1918L40.3265 41.2408C38.081 41.0159 35.9159 40.0567 34.4079 38.5365L32.5234 40.7734C30.784 42.8383 29.647 43.8335 24.6886 43.8335C23.0191 43.8337 22.1836 42.2988 23.0011 40.8711Z" fill="#F5C6AF"/>
<path fill-rule="evenodd" clip-rule="evenodd" d="M11.3668 51.4316L13.5034 29.8921C13.6626 28.2884 12.4912 26.8451 10.9007 26.6847L7.18021 26.3095C5.58957 26.1491 4.15796 27.3301 3.99893 28.9337L1.86236 50.4731C1.70334 52.0767 2.87458 53.5202 4.46509 53.6805L8.18556 54.0556C9.77606 54.2161 11.2077 53.0353 11.3668 51.4316Z" fill="#FF5D7D"/>
<path fill-rule="evenodd" clip-rule="evenodd" d="M56.4966 29.8921L58.6332 51.4315C58.7922 53.0353 60.2238 54.2161 61.8143 54.0557L65.5348 53.6806C67.1253 53.5203 68.2967 52.0768 68.1376 50.4732L66.001 28.9338C65.842 27.3302 64.4103 26.1493 62.8197 26.3096L59.0992 26.6848C57.5087 26.8451 56.3376 28.2884 56.4966 29.8921Z" fill="#99EBFA"/>
<path fill-rule="evenodd" clip-rule="evenodd" d="M28.0598 12.7169C27.0074 13.7694 27.0074 15.4758 28.0598 16.5282L31.5505 20.0189C32.603 21.0712 34.3094 21.0712 35.3618 20.0189L41.94 13.4407C42.9924 12.3882 42.9924 10.6818 41.94 9.62938C40.8876 8.57699 39.1811 8.57699 38.1287 9.62938L33.4562 14.3018L31.8712 12.7169C30.8187 11.6645 29.1123 11.6645 28.0598 12.7169Z" fill="white"/>
<path fill-rule="evenodd" clip-rule="evenodd" d="M35.3618 20.0189C34.3093 21.0713 32.6029 21.0713 31.5505 20.0189L28.0598 16.5282C27.0075 15.4758 27.0075 13.7693 28.0598 12.7169C29.1122 11.6645 30.8188 11.6645 31.8711 12.7169L33.4561 14.3019L38.1286 9.62941C39.181 8.57702 40.8875 8.57702 41.9399 9.62941C42.9923 10.6818 42.9923 12.3883 41.9399 13.4407L35.3618 20.0189ZM48.4766 14.8242C48.4766 7.38138 42.4428 1.34766 35 1.34766C27.5572 1.34766 21.5234 7.38138 21.5234 14.8242C21.5234 19.3363 23.7409 23.3305 27.1455 25.7765C28.3128 26.6158 29.6073 27.2621 30.9797 27.6908C32.2812 28.0964 33.6367 28.3021 35 28.3008C37.9307 28.3008 40.643 27.3652 42.8545 25.7765C46.2591 23.3305 48.4766 19.3363 48.4766 14.8242Z" fill="#B8ECBC"/>
<path d="M69.4788 50.3401L67.3422 28.8006C67.2293 27.6619 66.6785 26.6351 65.7915 25.9094C64.9116 25.1896 63.8089 24.855 62.6846 24.9686L58.9641 25.3438C57.0965 25.5322 55.6302 26.9162 55.2385 28.6644L53.1721 28.8727L47.5029 25.4855C46.9188 25.1366 46.459 24.8823 46.0426 24.7027C48.3926 22.0788 49.8241 18.6158 49.8241 14.8242C49.8241 6.65012 43.1741 0 34.9999 0C26.8258 0 20.1758 6.65012 20.1758 14.8242C20.1758 18.6156 21.6073 22.0787 23.9573 24.7028C23.5409 24.8823 23.0812 25.1368 22.497 25.4857L16.8279 28.8727L14.7615 28.6644C14.37 26.9162 12.9036 25.5322 11.0359 25.3438L7.31556 24.9686C6.19108 24.8551 5.0887 25.1895 4.20855 25.9094C3.32153 26.6352 2.77088 27.6619 2.65794 28.8006L1.89558 36.487C1.82213 37.2276 2.36294 37.8876 3.10361 37.961C3.27974 37.9786 3.45761 37.9613 3.62705 37.9101C3.79649 37.8589 3.95417 37.7748 4.09107 37.6626C4.22798 37.5504 4.34142 37.4123 4.42492 37.2562C4.50841 37.1001 4.56032 36.9291 4.57767 36.753L5.34004 29.0667C5.36028 28.859 5.42156 28.6573 5.52031 28.4735C5.61907 28.2896 5.75334 28.1272 5.91535 27.9957C6.23757 27.7321 6.63931 27.6094 7.04508 27.6504L10.7654 28.0256C11.622 28.112 12.2486 28.8896 12.1622 29.7591L10.0257 51.2984C10.0055 51.5062 9.94419 51.7078 9.84543 51.8917C9.74667 52.0756 9.61239 52.238 9.45037 52.3696C9.12815 52.6333 8.72682 52.7559 8.32063 52.7148L4.60018 52.3396C3.74374 52.2533 3.11709 51.4757 3.20347 50.606L3.38028 48.8229C3.45373 48.0823 2.91278 47.4223 2.17211 47.3489C1.43266 47.2756 0.771502 47.8164 0.698055 48.5571L0.521243 50.34C0.288369 52.6861 1.99692 54.7862 4.32984 55.0213L8.0503 55.3965C8.19369 55.4109 8.33681 55.4181 8.47925 55.4181C9.45185 55.4181 10.3895 55.0836 11.1572 54.4556C11.6748 54.0335 12.0861 53.4959 12.3579 52.8858L13.1683 52.9675C12.0228 54.632 12.1838 56.9402 13.6536 58.4221C14.4551 59.2304 15.5249 59.6756 16.6656 59.6756C17.0122 59.6756 17.3523 59.6345 17.6802 59.5547C17.8652 60.3016 18.2492 60.9843 18.7915 61.5302C19.5931 62.3385 20.6627 62.7837 21.8033 62.7837H21.8035C22.1501 62.7837 22.4902 62.7426 22.8181 62.6626C23.0031 63.4095 23.3872 64.0923 23.9294 64.6383C24.731 65.4466 25.8007 65.8917 26.9414 65.8917C27.288 65.8917 27.6281 65.8506 27.956 65.7709C28.141 66.5178 28.5251 67.2005 29.0673 67.7465C29.8689 68.5548 30.9387 68.9998 32.0793 68.9998C33.22 68.9998 34.2896 68.5547 35.0913 67.7465L36.8569 65.9664C37.6793 66.4878 38.5961 66.7584 39.5218 66.7584C40.1633 66.7584 40.8091 66.6285 41.4297 66.3626C42.5841 65.8682 43.4659 64.9821 43.9479 63.9026C45.2332 64.3432 46.551 64.2096 47.6913 63.4795C48.6717 62.8516 49.3724 61.8664 49.6771 60.7991C51.5291 61.0081 53.2881 60.109 54.2654 58.8399C55.6126 57.0906 55.5019 54.8672 54.0165 53.2515L57.6419 52.886C57.9138 53.4959 58.325 54.0335 58.8426 54.4554C59.6102 55.0837 60.5479 55.4182 61.5206 55.4182C61.6631 55.4182 61.8062 55.4111 61.9496 55.3966L65.67 55.0215C68.0029 54.7863 69.7116 52.6863 69.4788 50.3401ZM52.1724 31.4153C52.4209 31.5639 52.7107 31.6285 52.9987 31.5994L55.2888 31.3686L57.1593 50.2257L51.5975 50.7865L43.4015 42.4476C43.7462 42.3817 44.0874 42.2987 44.4238 42.1987C45.1371 41.986 45.5429 41.2354 45.3302 40.5222C45.1176 39.8089 44.3668 39.4033 43.6537 39.6158C40.8013 40.4663 37.3924 39.6324 35.3643 37.5877C35.2326 37.4548 35.0746 37.3508 34.9004 37.2824C34.7263 37.2139 34.5398 37.1824 34.3528 37.19C34.1658 37.1976 33.9825 37.2441 33.8144 37.3265C33.6464 37.4088 33.4974 37.5253 33.3768 37.6684L31.4925 39.9055C30.0452 41.6238 29.3186 42.4862 24.6884 42.4862C24.3972 42.4862 24.1848 42.3964 24.0903 42.2335C23.9907 42.0616 24.0206 41.8028 24.1706 41.5409C25.3575 39.4682 26.4343 37.6845 27.4756 35.9594C28.6284 34.0497 29.8202 32.0749 31.1601 29.7111C31.2541 29.5438 31.3544 29.3801 31.4607 29.2203C32.6189 29.505 33.8073 29.6487 34.9999 29.6483C38.0827 29.6483 40.9482 28.7021 43.3225 27.0853C44.6769 26.9562 44.7271 26.9673 46.1206 27.7996L52.1724 31.4153ZM34.9999 2.6953C41.6878 2.6953 47.1288 8.1363 47.1288 14.8242C47.1288 21.512 41.6878 26.953 34.9999 26.953C28.3121 26.953 22.8711 21.512 22.8711 14.8242C22.8711 8.1363 28.3121 2.6953 34.9999 2.6953ZM16.6656 56.9804C16.4614 56.9812 16.2591 56.9413 16.0705 56.863C15.8819 56.7847 15.7109 56.6696 15.5674 56.5244C14.9531 55.9051 14.9531 54.8976 15.5675 54.2782L17.6225 52.2061C17.9143 51.912 18.3044 51.75 18.7209 51.75C19.1373 51.75 19.5274 51.912 19.8192 52.2061C20.4333 52.8253 20.4333 53.833 19.8191 54.4522L18.7915 55.4883L18.7904 55.4895L18.7862 55.4937L17.7638 56.5244C17.6202 56.6696 17.4492 56.7848 17.2606 56.8631C17.072 56.9414 16.8697 56.9813 16.6656 56.9804ZM21.8035 60.0885C21.5993 60.0893 21.397 60.0494 21.2084 59.9711C21.0198 59.8927 20.8488 59.7776 20.7053 59.6323C20.0914 59.0132 20.0913 58.0062 20.7047 57.3869L20.7054 57.3862L21.733 56.3501C21.7332 56.3499 21.7334 56.3497 21.7335 56.3494L22.7604 55.3142C22.904 55.169 23.075 55.0539 23.2636 54.9756C23.4522 54.8973 23.6545 54.8573 23.8586 54.8581C24.2752 54.8581 24.6653 55.0201 24.957 55.3142C25.5712 55.9334 25.5712 56.9409 24.957 57.5603L23.9294 58.5964C23.9292 58.5966 23.929 58.5968 23.9289 58.597L22.9017 59.6324C22.7582 59.7777 22.5871 59.8928 22.3985 59.9711C22.21 60.0494 22.0077 60.0893 21.8035 60.0885ZM26.9414 63.1966C26.525 63.1966 26.135 63.0346 25.8432 62.7404C25.2293 62.1213 25.2292 61.1143 25.8426 60.4949L25.8433 60.4943L26.8709 59.4582C26.8711 59.458 26.8713 59.4578 26.8714 59.4575L27.8984 58.4221C28.1901 58.1279 28.5803 57.9661 28.9967 57.9661C29.4131 57.9661 29.8031 58.1281 30.0949 58.4221C30.709 59.0412 30.7091 60.0486 30.0952 60.6678L30.0948 60.6683L29.0672 61.7043C29.067 61.7045 29.0668 61.7047 29.0666 61.705L28.0396 62.7404C27.8961 62.8857 27.725 63.0009 27.5365 63.0792C27.3479 63.1575 27.1456 63.1974 26.9414 63.1966ZM33.1778 65.8485C32.886 66.1427 32.4959 66.3045 32.0794 66.3045C31.663 66.3045 31.2729 66.1425 30.9812 65.8485C30.3681 65.2303 30.367 64.2251 30.9781 63.6056L30.9803 63.6034L30.9814 63.6025L32.009 62.5664L32.0096 62.5657L33.0367 61.5305C33.3283 61.2363 33.7183 61.0744 34.1347 61.0744C34.5512 61.0744 34.9413 61.2364 35.2331 61.5306C35.8473 62.1499 35.8473 63.1574 35.2331 63.7766L33.1778 65.8485ZM52.1301 57.1954C51.4989 58.015 50.2555 58.4925 49.1008 57.8204C48.8712 57.6867 48.6072 57.6239 48.342 57.6398C48.0768 57.6557 47.8222 57.7497 47.6102 57.9098C47.3982 58.07 47.2383 58.2893 47.1506 58.5401C47.0629 58.7909 47.0513 59.062 47.1172 59.3194C47.2781 59.9482 46.8836 60.7963 46.2379 61.2099C45.3739 61.7632 44.4674 61.2905 43.8595 60.7965C43.6587 60.6335 43.4153 60.5318 43.1582 60.5033C42.9012 60.4749 42.6414 60.521 42.4098 60.6361C42.1782 60.7513 41.9847 60.9307 41.8522 61.1528C41.7198 61.3749 41.654 61.6305 41.6629 61.889C41.6926 62.7521 41.1846 63.5358 40.3686 63.8852C40.0128 64.0375 39.1741 64.2748 38.2645 63.6718C38.6035 62.2691 38.2308 60.7258 37.1463 59.6326C36.3448 58.8243 35.275 58.3791 34.1342 58.3793C33.7877 58.3793 33.4477 58.4204 33.1198 58.5002C32.9348 57.7533 32.5508 57.0705 32.0086 56.5245C31.207 55.7162 30.1373 55.271 28.9967 55.271C28.6501 55.271 28.3099 55.3121 27.982 55.3919C27.7969 54.645 27.4128 53.9622 26.8706 53.4161C26.0689 52.6078 24.9992 52.1628 23.8585 52.1628C23.512 52.1628 23.1719 52.2039 22.8441 52.2837C22.6591 51.5368 22.275 50.8541 21.7329 50.3081H21.7327C20.9311 49.4997 19.8614 49.0547 18.7207 49.0547C17.5801 49.0547 16.5104 49.4999 15.7086 50.3081L15.5222 50.4959L12.8404 50.2254L14.7109 31.3683L17.0009 31.5992C17.289 31.6282 17.5788 31.5637 17.8274 31.4151L23.879 27.7993C25.2721 26.9672 25.3221 26.956 26.6772 27.0851C27.3672 27.555 28.0957 27.9658 28.8548 28.3131C28.8414 28.3362 28.8284 28.3578 28.8149 28.3815C27.4934 30.7132 26.3111 32.6719 25.1677 34.566C24.1186 36.3042 23.0336 38.1016 21.8314 40.2011C21.1982 41.3068 21.1709 42.5717 21.7582 43.5848C22.3377 44.5843 23.4329 45.1811 24.6881 45.1811C29.9917 45.1811 31.5269 44.0475 33.5536 41.6417L34.5595 40.4476C36.0429 41.5552 37.8385 42.2689 39.705 42.5314L51.9524 54.9925C52.8736 55.9139 52.4591 56.768 52.1301 57.1954ZM65.3998 52.3396L61.6794 52.7148C61.2735 52.7559 60.8719 52.6333 60.5495 52.3694C60.3875 52.2379 60.2532 52.0755 60.1545 51.8916C60.0558 51.7078 59.9945 51.5061 59.9743 51.2984L57.8378 29.7592C57.7515 28.8896 58.3783 28.1119 59.2347 28.0256L62.9552 27.6504C63.3611 27.6093 63.7627 27.7319 64.0848 27.9955C64.2468 28.1271 64.3811 28.2895 64.4799 28.4734C64.5787 28.6573 64.64 28.8589 64.6602 29.0667L66.7968 50.6062C66.8829 51.4757 66.2563 52.2533 65.3998 52.3396Z" fill="black"/>
<path d="M30.5975 20.9719C31.3611 21.7355 32.3763 22.1559 33.4562 22.1559C34.5362 22.1559 35.5514 21.7353 36.3148 20.9719L42.8931 14.3937C44.4693 12.8175 44.4693 10.2527 42.8931 8.67648C42.1295 7.9129 41.1143 7.49243 40.0345 7.49243C38.9545 7.49243 37.9393 7.9129 37.1758 8.67648L33.4562 12.3961L32.8243 11.7641C32.0607 11.0005 31.0455 10.58 29.9656 10.58C28.8858 10.58 27.8706 11.0006 27.107 11.7641C26.3434 12.5277 25.923 13.5428 25.923 14.6227C25.923 15.7026 26.3434 16.7178 27.107 17.4812L30.5975 20.9719ZM29.013 13.6699C29.2674 13.4154 29.6057 13.2753 29.9656 13.2753C30.3256 13.2753 30.664 13.4155 30.9183 13.6699L32.5033 15.2549C32.756 15.5076 33.0988 15.6495 33.4562 15.6495C33.8136 15.6495 34.1564 15.5076 34.4091 15.2549L39.0817 10.5823C39.3361 10.3279 39.6744 10.1877 40.0343 10.1877C40.3943 10.1877 40.7327 10.3279 40.987 10.5823C41.1125 10.7071 41.212 10.8556 41.2798 11.0191C41.3475 11.1826 41.3822 11.358 41.3817 11.535C41.3822 11.712 41.3475 11.8873 41.2798 12.0509C41.212 12.2144 41.1125 12.3628 40.987 12.4876L34.4087 19.0659C34.1543 19.3204 33.816 19.4605 33.456 19.4605C33.0961 19.4605 32.7577 19.3204 32.5034 19.0659L29.0128 15.5752C28.4875 15.0499 28.4875 14.1952 29.013 13.6699ZM2.63785 44.0027C3.38202 44.0027 3.9855 43.3994 3.9855 42.6551C3.9855 41.9107 3.38202 41.3074 2.63785 41.3074H2.63691C1.89273 41.3074 1.28979 41.9107 1.28979 42.6551C1.28979 43.3994 1.89354 44.0027 2.63785 44.0027ZM48.7955 38.4924C49.5397 38.4924 50.1432 37.8891 50.1432 37.1448C50.1432 36.4005 49.5397 35.7971 48.7955 35.7971H48.7945C48.0503 35.7971 47.4474 36.4005 47.4474 37.1448C47.4474 37.8891 48.0514 38.4924 48.7955 38.4924Z" fill="black"/>
</svg>
